<svg width="150" height="150" viewBox="0 0 150 150" fill="none" xmlns="http://www.w3.org/2000/svg">
<g clip-path="url(#clip0_136_14092)">
<path d="M150 75C150 86.25 147.522 96.9643 143.036 106.54C131.183 132.188 105.134 150 75 150C72.9241 150 70.7812 149.933 68.7723 149.732C30.2679 146.585 0 114.308 0 75C0 33.5491 33.5491 0 75 0C116.451 0 150 33.5491 150 75Z" fill="#080F2B"/>
<path d="M143.036 106.54C131.183 132.188 105.134 150 75 150C72.9241 150 70.7812 149.933 68.7723 149.732L59.7991 114.978L118.125 82.0312L143.036 106.54Z" fill="url(#paint0_linear_136_14092)"/>
<path d="M57.1205 35.6918L62.9463 45.7365C64.8883 45.9374 66.7633 46.8749 67.9687 48.549C77.3437 45.9374 86.7187 49.0847 92.8124 57.1204L102.589 66.7633L115.513 59.2633C114.71 57.5222 113.638 55.3793 112.835 53.9731C100.312 32.2097 77.7455 25.7142 57.1205 35.6918ZM37.366 97.0311C42.924 106.674 50.8928 113.37 60.2008 116.585L51.0937 81.2276C47.4106 71.7186 49.2856 62.2097 56.116 55.5133C55.2455 53.6383 55.2455 51.4954 56.116 49.6874L50.2901 39.6427C31.0713 52.8347 25.4463 76.3392 37.366 97.0311Z" fill="white"/>
<path d="M121.741 85.5802C118.861 95.8927 111.294 104.732 99.8435 111.294C85.9819 119.263 72.0533 120.736 60.2006 116.585L51.0935 81.2275L92.8792 57.1204L102.656 66.7632L57.8569 92.6114C66.1605 102.187 79.0846 103.861 91.8748 96.4954C100.178 91.7409 105.134 85.3793 107.277 76.9418C107.745 75.2677 107.946 73.4596 108.013 71.9864L121.741 85.5802Z" fill="#FFA300"/>
</g>
<defs>
<linearGradient id="paint0_linear_136_14092" x1="90.2878" y1="100.138" x2="107.704" y2="131.347" gradientUnits="userSpaceOnUse">
<stop stop-color="#FFA300" stop-opacity="0.8"/>
<stop offset="1" stop-color="#FFA300" stop-opacity="0"/>
</linearGradient>
<clipPath id="clip0_136_14092">
<rect width="150" height="150" fill="white"/>
</clipPath>
</defs>
</svg>
