<svg width="225" height="224" viewBox="0 0 225 224" fill="none" xmlns="http://www.w3.org/2000/svg">
<g clip-path="url(#clip0_3663_6)">
<path d="M224.9 112C224.9 128.8 221.2 144.8 214.5 159.1C196.8 197.4 157.9 224 112.9 224C109.8 224 106.6 223.9 103.6 223.6C46.1004 218.9 0.900391 170.7 0.900391 112C0.900391 50.1 51.0004 0 112.9 0C174.8 0 224.9 50.1 224.9 112Z" fill="white"/>
<path d="M214.501 159.1C196.801 197.4 157.901 224 112.901 224C109.801 224 106.601 223.9 103.601 223.6L90.2012 171.7L177.301 122.5L214.501 159.1Z" fill="url(#paint0_linear_3663_6)"/>
<path d="M86.2003 53.2999L94.9003 68.2999C97.8003 68.5999 100.6 69.9999 102.4 72.4999C116.4 68.5999 130.4 73.2999 139.5 85.2999L154.1 99.6999L173.4 88.4999C172.2 85.8999 170.6 82.6999 169.4 80.5999C150.7 48.0999 117 38.3999 86.2003 53.2999ZM56.7003 144.9C65.0003 159.3 76.9003 169.3 90.8003 174.1L77.2003 121.3C71.7003 107.1 74.5003 92.8999 84.7003 82.8999C83.4003 80.0999 83.4003 76.8999 84.7003 74.1999L76.0003 59.1999C47.3003 78.8999 38.9003 114 56.7003 144.9Z" fill="#080F2B"/>
<path d="M182.701 127.801C178.401 143.201 167.101 156.401 150.001 166.201C129.301 178.101 108.501 180.301 90.8012 174.101L77.2012 121.301L139.601 85.3008L154.201 99.7008L87.3012 138.301C99.7012 152.601 119.001 155.101 138.101 144.101C150.501 137.001 157.901 127.501 161.101 114.901C161.801 112.401 162.101 109.701 162.201 107.501L182.701 127.801Z" fill="#FFA300"/>
</g>
<defs>
<linearGradient id="paint0_linear_3663_6" x1="135.731" y1="149.539" x2="161.739" y2="196.145" gradientUnits="userSpaceOnUse">
<stop stop-color="#FFA300" stop-opacity="0.8"/>
<stop offset="1" stop-color="#FFA300" stop-opacity="0"/>
</linearGradient>
<clipPath id="clip0_3663_6">
<rect width="224" height="224" fill="white" transform="translate(0.900391)"/>
</clipPath>
</defs>
</svg>
